<?xml version="1.0" encoding="utf-8" standalone="no"?>
<!DOCTYPE svg PUBLIC "-//W3C//DTD SVG 1.1//EN"
  "http://www.w3.org/Graphics/SVG/1.1/DTD/svg11.dtd">
<svg height="345.6pt" version="1.1" viewBox="0 0 460.8 345.6" width="460.8pt" xmlns="http://www.w3.org/2000/svg" xmlns:xlink="http://www.w3.org/1999/xlink">
 <metadata>
  <rdf:RDF xmlns:cc="http://creativecommons.org/ns#" xmlns:dc="http://purl.org/dc/elements/1.1/" xmlns:rdf="http://www.w3.org/1999/02/22-rdf-syntax-ns#">
   <cc:Work>
    <dc:type rdf:resource="http://purl.org/dc/dcmitype/StillImage"/>
    <dc:date>2023-05-14T20:01:38.727049</dc:date>
    <dc:format>image/svg+xml</dc:format>
    <dc:creator>
     <cc:Agent>
      <dc:title>Matplotlib v3.4.2, https://matplotlib.org/</dc:title>
     </cc:Agent>
    </dc:creator>
   </cc:Work>
  </rdf:RDF>
 </metadata>
 <defs>
  <style type="text/css">*{stroke-linecap:butt;stroke-linejoin:round;}</style>
 </defs>
 <g id="figure_1">
  <g id="patch_1">
   <path d="M 0 345.6 
L 460.8 345.6 
L 460.8 0 
L 0 0 
z
" style="fill:#ffffff;"/>
  </g>
  <g id="axes_1">
   <g id="patch_2">
    <path d="M 57.6 307.584 
L 414.72 307.584 
L 414.72 41.472 
L 57.6 41.472 
z
" style="fill:#ffffff;"/>
   </g>
   <g id="PathCollection_1">
    <defs>
     <path d="M 0 3 
C 0.795609 3 1.55874 2.683901 2.12132 2.12132 
C 2.683901 1.55874 3 0.795609 3 0 
C 3 -0.795609 2.683901 -1.55874 2.12132 -2.12132 
C 1.55874 -2.683901 0.795609 -3 0 -3 
C -0.795609 -3 -1.55874 -2.683901 -2.12132 -2.12132 
C -2.683901 -1.55874 -3 -0.795609 -3 0 
C -3 0.795609 -2.683901 1.55874 -2.12132 2.12132 
C -1.55874 2.683901 -0.795609 3 0 3 
z
" id="m4a22668148" style="stroke:#1f77b4;"/>
    </defs>
    <g clip-path="url(#pc5b057eba4)">
     <use style="fill:#1f77b4;stroke:#1f77b4;" x="57.6" xlink:href="#m4a22668148" y="307.584"/>
     <use style="fill:#1f77b4;stroke:#1f77b4;" x="-1" xlink:href="#m4a22668148" y="351.250452"/>
     <use style="fill:#1f77b4;stroke:#1f77b4;" x="-1" xlink:href="#m4a22668148" y="57.386989"/>
     <use style="fill:#1f77b4;stroke:#1f77b4;" x="9.984" xlink:href="#m4a22668148" y="41.472"/>
     <use style="fill:#1f77b4;stroke:#1f77b4;" x="39.296772" xlink:href="#m4a22668148" y="-1"/>
     <use style="fill:#1f77b4;stroke:#1f77b4;" x="41.044833" xlink:href="#m4a22668148" y="-1"/>
     <use style="fill:#1f77b4;stroke:#1f77b4;" x="-1" xlink:href="#m4a22668148" y="66.352324"/>
     <use style="fill:#1f77b4;stroke:#1f77b4;" x="-1" xlink:href="#m4a22668148" y="141.162989"/>
     <use style="fill:#1f77b4;stroke:#1f77b4;" x="33.792" xlink:href="#m4a22668148" y="90.752"/>
     <use style="fill:#1f77b4;stroke:#1f77b4;" x="81.408" xlink:href="#m4a22668148" y="21.76"/>
     <use style="fill:#1f77b4;stroke:#1f77b4;" x="97.1162" xlink:href="#m4a22668148" y="-1"/>
     <use style="fill:#1f77b4;stroke:#1f77b4;" x="100.163574" xlink:href="#m4a22668148" y="-1"/>
     <use style="fill:#1f77b4;stroke:#1f77b4;" x="-1" xlink:href="#m4a22668148" y="161.055628"/>
     <use style="fill:#1f77b4;stroke:#1f77b4;" x="-1" xlink:href="#m4a22668148" y="224.938989"/>
     <use style="fill:#1f77b4;stroke:#1f77b4;" x="9.984" xlink:href="#m4a22668148" y="209.024"/>
     <use style="fill:#1f77b4;stroke:#1f77b4;" x="57.6" xlink:href="#m4a22668148" y="140.032"/>
     <use style="fill:#1f77b4;stroke:#1f77b4;" x="105.216" xlink:href="#m4a22668148" y="71.04"/>
     <use style="fill:#1f77b4;stroke:#1f77b4;" x="152.832" xlink:href="#m4a22668148" y="2.048"/>
     <use style="fill:#1f77b4;stroke:#1f77b4;" x="154.935629" xlink:href="#m4a22668148" y="-1"/>
     <use style="fill:#1f77b4;stroke:#1f77b4;" x="159.282316" xlink:href="#m4a22668148" y="-1"/>
     <use style="fill:#1f77b4;stroke:#1f77b4;" x="-1" xlink:href="#m4a22668148" y="255.758932"/>
     <use style="fill:#1f77b4;stroke:#1f77b4;" x="-1" xlink:href="#m4a22668148" y="308.714989"/>
     <use style="fill:#1f77b4;stroke:#1f77b4;" x="33.792" xlink:href="#m4a22668148" y="258.304"/>
     <use style="fill:#1f77b4;stroke:#1f77b4;" x="81.408" xlink:href="#m4a22668148" y="189.312"/>
     <use style="fill:#1f77b4;stroke:#1f77b4;" x="129.024" xlink:href="#m4a22668148" y="120.32"/>
     <use style="fill:#1f77b4;stroke:#1f77b4;" x="176.64" xlink:href="#m4a22668148" y="51.328"/>
     <use style="fill:#1f77b4;stroke:#1f77b4;" x="212.755058" xlink:href="#m4a22668148" y="-1"/>
     <use style="fill:#1f77b4;stroke:#1f77b4;" x="218.401058" xlink:href="#m4a22668148" y="-1"/>
     <use style="fill:#1f77b4;stroke:#1f77b4;" x="-1" xlink:href="#m4a22668148" y="350.462237"/>
     <use style="fill:#1f77b4;stroke:#1f77b4;" x="-1" xlink:href="#m4a22668148" y="392.490989"/>
     <use style="fill:#1f77b4;stroke:#1f77b4;" x="9.984" xlink:href="#m4a22668148" y="376.576"/>
     <use style="fill:#1f77b4;stroke:#1f77b4;" x="57.6" xlink:href="#m4a22668148" y="307.584"/>
     <use style="fill:#1f77b4;stroke:#1f77b4;" x="105.216" xlink:href="#m4a22668148" y="238.592"/>
     <use style="fill:#1f77b4;stroke:#1f77b4;" x="152.832" xlink:href="#m4a22668148" y="169.6"/>
     <use style="fill:#1f77b4;stroke:#1f77b4;" x="200.448" xlink:href="#m4a22668148" y="100.608"/>
     <use style="fill:#1f77b4;stroke:#1f77b4;" x="248.064" xlink:href="#m4a22668148" y="31.616"/>
     <use style="fill:#1f77b4;stroke:#1f77b4;" x="270.574486" xlink:href="#m4a22668148" y="-1"/>
     <use style="fill:#1f77b4;stroke:#1f77b4;" x="277.519799" xlink:href="#m4a22668148" y="-1"/>
     <use style="fill:#1f77b4;stroke:#1f77b4;" x="-1" xlink:href="#m4a22668148" y="445.165541"/>
     <use style="fill:#1f77b4;stroke:#1f77b4;" x="-1" xlink:href="#m4a22668148" y="476.266989"/>
     <use style="fill:#1f77b4;stroke:#1f77b4;" x="33.792" xlink:href="#m4a22668148" y="425.856"/>
     <use style="fill:#1f77b4;stroke:#1f77b4;" x="81.408" xlink:href="#m4a22668148" y="356.864"/>
     <use style="fill:#1f77b4;stroke:#1f77b4;" x="129.024" xlink:href="#m4a22668148" y="287.872"/>
     <use style="fill:#1f77b4;stroke:#1f77b4;" x="176.64" xlink:href="#m4a22668148" y="218.88"/>
     <use style="fill:#1f77b4;stroke:#1f77b4;" x="224.256" xlink:href="#m4a22668148" y="149.888"/>
     <use style="fill:#1f77b4;stroke:#1f77b4;" x="271.872" xlink:href="#m4a22668148" y="80.896"/>
     <use style="fill:#1f77b4;stroke:#1f77b4;" x="319.488" xlink:href="#m4a22668148" y="11.904"/>
     <use style="fill:#1f77b4;stroke:#1f77b4;" x="328.393915" xlink:href="#m4a22668148" y="-1"/>
     <use style="fill:#1f77b4;stroke:#1f77b4;" x="336.638541" xlink:href="#m4a22668148" y="-1"/>
     <use style="fill:#1f77b4;stroke:#1f77b4;" x="-1" xlink:href="#m4a22668148" y="539.868845"/>
     <use style="fill:#1f77b4;stroke:#1f77b4;" x="-1" xlink:href="#m4a22668148" y="560.042989"/>
     <use style="fill:#1f77b4;stroke:#1f77b4;" x="9.984" xlink:href="#m4a22668148" y="544.128"/>
     <use style="fill:#1f77b4;stroke:#1f77b4;" x="57.6" xlink:href="#m4a22668148" y="475.136"/>
     <use style="fill:#1f77b4;stroke:#1f77b4;" x="105.216" xlink:href="#m4a22668148" y="406.144"/>
     <use style="fill:#1f77b4;stroke:#1f77b4;" x="152.832" xlink:href="#m4a22668148" y="337.152"/>
     <use style="fill:#1f77b4;stroke:#1f77b4;" x="200.448" xlink:href="#m4a22668148" y="268.16"/>
     <use style="fill:#1f77b4;stroke:#1f77b4;" x="248.064" xlink:href="#m4a22668148" y="199.168"/>
     <use style="fill:#1f77b4;stroke:#1f77b4;" x="295.68" xlink:href="#m4a22668148" y="130.176"/>
     <use style="fill:#1f77b4;stroke:#1f77b4;" x="343.296" xlink:href="#m4a22668148" y="61.184"/>
     <use style="fill:#1f77b4;stroke:#1f77b4;" x="386.213343" xlink:href="#m4a22668148" y="-1"/>
     <use style="fill:#1f77b4;stroke:#1f77b4;" x="395.757282" xlink:href="#m4a22668148" y="-1"/>
     <use style="fill:#1f77b4;stroke:#1f77b4;" x="-1" xlink:href="#m4a22668148" y="634.57215"/>
     <use style="fill:#1f77b4;stroke:#1f77b4;" x="-1" xlink:href="#m4a22668148" y="643.818989"/>
     <use style="fill:#1f77b4;stroke:#1f77b4;" x="33.792" xlink:href="#m4a22668148" y="593.408"/>
     <use style="fill:#1f77b4;stroke:#1f77b4;" x="81.408" xlink:href="#m4a22668148" y="524.416"/>
     <use style="fill:#1f77b4;stroke:#1f77b4;" x="129.024" xlink:href="#m4a22668148" y="455.424"/>
     <use style="fill:#1f77b4;stroke:#1f77b4;" x="176.64" xlink:href="#m4a22668148" y="386.432"/>
     <use style="fill:#1f77b4;stroke:#1f77b4;" x="224.256" xlink:href="#m4a22668148" y="317.44"/>
     <use style="fill:#1f77b4;stroke:#1f77b4;" x="271.872" xlink:href="#m4a22668148" y="248.448"/>
     <use style="fill:#1f77b4;stroke:#1f77b4;" x="319.488" xlink:href="#m4a22668148" y="179.456"/>
     <use style="fill:#1f77b4;stroke:#1f77b4;" x="367.104" xlink:href="#m4a22668148" y="110.464"/>
     <use style="fill:#1f77b4;stroke:#1f77b4;" x="414.72" xlink:href="#m4a22668148" y="41.472"/>
     <use style="fill:#1f77b4;stroke:#1f77b4;" x="444.032772" xlink:href="#m4a22668148" y="-1"/>
     <use style="fill:#1f77b4;stroke:#1f77b4;" x="454.876024" xlink:href="#m4a22668148" y="-1"/>
     <use style="fill:#1f77b4;stroke:#1f77b4;" x="9.984" xlink:href="#m4a22668148" y="711.68"/>
     <use style="fill:#1f77b4;stroke:#1f77b4;" x="57.6" xlink:href="#m4a22668148" y="642.688"/>
     <use style="fill:#1f77b4;stroke:#1f77b4;" x="105.216" xlink:href="#m4a22668148" y="573.696"/>
     <use style="fill:#1f77b4;stroke:#1f77b4;" x="152.832" xlink:href="#m4a22668148" y="504.704"/>
     <use style="fill:#1f77b4;stroke:#1f77b4;" x="200.448" xlink:href="#m4a22668148" y="435.712"/>
     <use style="fill:#1f77b4;stroke:#1f77b4;" x="248.064" xlink:href="#m4a22668148" y="366.72"/>
     <use style="fill:#1f77b4;stroke:#1f77b4;" x="295.68" xlink:href="#m4a22668148" y="297.728"/>
     <use style="fill:#1f77b4;stroke:#1f77b4;" x="343.296" xlink:href="#m4a22668148" y="228.736"/>
     <use style="fill:#1f77b4;stroke:#1f77b4;" x="390.912" xlink:href="#m4a22668148" y="159.744"/>
     <use style="fill:#1f77b4;stroke:#1f77b4;" x="438.528" xlink:href="#m4a22668148" y="90.752"/>
     <use style="fill:#1f77b4;stroke:#1f77b4;" x="486.144" xlink:href="#m4a22668148" y="21.76"/>
     <use style="fill:#1f77b4;stroke:#1f77b4;" x="501.8522" xlink:href="#m4a22668148" y="-1"/>
     <use style="fill:#1f77b4;stroke:#1f77b4;" x="513.994766" xlink:href="#m4a22668148" y="-1"/>
     <use style="fill:#1f77b4;stroke:#1f77b4;" x="81.408" xlink:href="#m4a22668148" y="691.968"/>
     <use style="fill:#1f77b4;stroke:#1f77b4;" x="129.024" xlink:href="#m4a22668148" y="622.976"/>
     <use style="fill:#1f77b4;stroke:#1f77b4;" x="176.64" xlink:href="#m4a22668148" y="553.984"/>
     <use style="fill:#1f77b4;stroke:#1f77b4;" x="224.256" xlink:href="#m4a22668148" y="484.992"/>
     <use style="fill:#1f77b4;stroke:#1f77b4;" x="271.872" xlink:href="#m4a22668148" y="416"/>
     <use style="fill:#1f77b4;stroke:#1f77b4;" x="319.488" xlink:href="#m4a22668148" y="347.008"/>
     <use style="fill:#1f77b4;stroke:#1f77b4;" x="367.104" xlink:href="#m4a22668148" y="278.016"/>
     <use style="fill:#1f77b4;stroke:#1f77b4;" x="414.72" xlink:href="#m4a22668148" y="209.024"/>
     <use style="fill:#1f77b4;stroke:#1f77b4;" x="462.336" xlink:href="#m4a22668148" y="140.032"/>
     <use style="fill:#1f77b4;stroke:#1f77b4;" x="509.952" xlink:href="#m4a22668148" y="71.04"/>
     <use style="fill:#1f77b4;stroke:#1f77b4;" x="557.568" xlink:href="#m4a22668148" y="2.048"/>
     <use style="fill:#1f77b4;stroke:#1f77b4;" x="559.671629" xlink:href="#m4a22668148" y="-1"/>
     <use style="fill:#1f77b4;stroke:#1f77b4;" x="573.113507" xlink:href="#m4a22668148" y="-1"/>
     <use style="fill:#1f77b4;stroke:#1f77b4;" x="152.832" xlink:href="#m4a22668148" y="672.256"/>
     <use style="fill:#1f77b4;stroke:#1f77b4;" x="200.448" xlink:href="#m4a22668148" y="603.264"/>
     <use style="fill:#1f77b4;stroke:#1f77b4;" x="248.064" xlink:href="#m4a22668148" y="534.272"/>
     <use style="fill:#1f77b4;stroke:#1f77b4;" x="295.68" xlink:href="#m4a22668148" y="465.28"/>
     <use style="fill:#1f77b4;stroke:#1f77b4;" x="343.296" xlink:href="#m4a22668148" y="396.288"/>
     <use style="fill:#1f77b4;stroke:#1f77b4;" x="390.912" xlink:href="#m4a22668148" y="327.296"/>
     <use style="fill:#1f77b4;stroke:#1f77b4;" x="438.528" xlink:href="#m4a22668148" y="258.304"/>
     <use style="fill:#1f77b4;stroke:#1f77b4;" x="486.144" xlink:href="#m4a22668148" y="189.312"/>
     <use style="fill:#1f77b4;stroke:#1f77b4;" x="533.76" xlink:href="#m4a22668148" y="120.32"/>
     <use style="fill:#1f77b4;stroke:#1f77b4;" x="581.376" xlink:href="#m4a22668148" y="51.328"/>
     <use style="fill:#1f77b4;stroke:#1f77b4;" x="617.491058" xlink:href="#m4a22668148" y="-1"/>
    </g>
   </g>
   <g id="matplotlib.axis_1">
    <g id="xtick_1">
     <g id="line2d_1">
      <defs>
       <path d="M 0 0 
L 0 3.5 
" id="m3139cfc27b" style="stroke:#000000;stroke-width:0.8;"/>
      </defs>
      <g>
       <use style="stroke:#000000;stroke-width:0.8;" x="57.6" xlink:href="#m3139cfc27b" y="307.584"/>
      </g>
     </g>
     <g id="text_1">
      <!-- 0 -->
      <g transform="translate(54.41875 322.182437)scale(0.1 -0.1)">
       <defs>
        <path d="M 2034 4250 
Q 1547 4250 1301 3770 
Q 1056 3291 1056 2328 
Q 1056 1369 1301 889 
Q 1547 409 2034 409 
Q 2525 409 2770 889 
Q 3016 1369 3016 2328 
Q 3016 3291 2770 3770 
Q 2525 4250 2034 4250 
z
M 2034 4750 
Q 2819 4750 3233 4129 
Q 3647 3509 3647 2328 
Q 3647 1150 3233 529 
Q 2819 -91 2034 -91 
Q 1250 -91 836 529 
Q 422 1150 422 2328 
Q 422 3509 836 4129 
Q 1250 4750 2034 4750 
z
" id="DejaVuSans-30" transform="scale(0.015625)"/>
       </defs>
       <use xlink:href="#DejaVuSans-30"/>
      </g>
     </g>
    </g>
    <g id="xtick_2">
     <g id="line2d_2">
      <g>
       <use style="stroke:#000000;stroke-width:0.8;" x="105.216" xlink:href="#m3139cfc27b" y="307.584"/>
      </g>
     </g>
     <g id="text_2">
      <!-- 2 -->
      <g transform="translate(102.03475 322.182437)scale(0.1 -0.1)">
       <defs>
        <path d="M 1228 531 
L 3431 531 
L 3431 0 
L 469 0 
L 469 531 
Q 828 903 1448 1529 
Q 2069 2156 2228 2338 
Q 2531 2678 2651 2914 
Q 2772 3150 2772 3378 
Q 2772 3750 2511 3984 
Q 2250 4219 1831 4219 
Q 1534 4219 1204 4116 
Q 875 4013 500 3803 
L 500 4441 
Q 881 4594 1212 4672 
Q 1544 4750 1819 4750 
Q 2544 4750 2975 4387 
Q 3406 4025 3406 3419 
Q 3406 3131 3298 2873 
Q 3191 2616 2906 2266 
Q 2828 2175 2409 1742 
Q 1991 1309 1228 531 
z
" id="DejaVuSans-32" transform="scale(0.015625)"/>
       </defs>
       <use xlink:href="#DejaVuSans-32"/>
      </g>
     </g>
    </g>
    <g id="xtick_3">
     <g id="line2d_3">
      <g>
       <use style="stroke:#000000;stroke-width:0.8;" x="152.832" xlink:href="#m3139cfc27b" y="307.584"/>
      </g>
     </g>
     <g id="text_3">
      <!-- 4 -->
      <g transform="translate(149.65075 322.182437)scale(0.1 -0.1)">
       <defs>
        <path d="M 2419 4116 
L 825 1625 
L 2419 1625 
L 2419 4116 
z
M 2253 4666 
L 3047 4666 
L 3047 1625 
L 3713 1625 
L 3713 1100 
L 3047 1100 
L 3047 0 
L 2419 0 
L 2419 1100 
L 313 1100 
L 313 1709 
L 2253 4666 
z
" id="DejaVuSans-34" transform="scale(0.015625)"/>
       </defs>
       <use xlink:href="#DejaVuSans-34"/>
      </g>
     </g>
    </g>
    <g id="xtick_4">
     <g id="line2d_4">
      <g>
       <use style="stroke:#000000;stroke-width:0.8;" x="200.448" xlink:href="#m3139cfc27b" y="307.584"/>
      </g>
     </g>
     <g id="text_4">
      <!-- 6 -->
      <g transform="translate(197.26675 322.182437)scale(0.1 -0.1)">
       <defs>
        <path d="M 2113 2584 
Q 1688 2584 1439 2293 
Q 1191 2003 1191 1497 
Q 1191 994 1439 701 
Q 1688 409 2113 409 
Q 2538 409 2786 701 
Q 3034 994 3034 1497 
Q 3034 2003 2786 2293 
Q 2538 2584 2113 2584 
z
M 3366 4563 
L 3366 3988 
Q 3128 4100 2886 4159 
Q 2644 4219 2406 4219 
Q 1781 4219 1451 3797 
Q 1122 3375 1075 2522 
Q 1259 2794 1537 2939 
Q 1816 3084 2150 3084 
Q 2853 3084 3261 2657 
Q 3669 2231 3669 1497 
Q 3669 778 3244 343 
Q 2819 -91 2113 -91 
Q 1303 -91 875 529 
Q 447 1150 447 2328 
Q 447 3434 972 4092 
Q 1497 4750 2381 4750 
Q 2619 4750 2861 4703 
Q 3103 4656 3366 4563 
z
" id="DejaVuSans-36" transform="scale(0.015625)"/>
       </defs>
       <use xlink:href="#DejaVuSans-36"/>
      </g>
     </g>
    </g>
    <g id="xtick_5">
     <g id="line2d_5">
      <g>
       <use style="stroke:#000000;stroke-width:0.8;" x="248.064" xlink:href="#m3139cfc27b" y="307.584"/>
      </g>
     </g>
     <g id="text_5">
      <!-- 8 -->
      <g transform="translate(244.88275 322.182437)scale(0.1 -0.1)">
       <defs>
        <path d="M 2034 2216 
Q 1584 2216 1326 1975 
Q 1069 1734 1069 1313 
Q 1069 891 1326 650 
Q 1584 409 2034 409 
Q 2484 409 2743 651 
Q 3003 894 3003 1313 
Q 3003 1734 2745 1975 
Q 2488 2216 2034 2216 
z
M 1403 2484 
Q 997 2584 770 2862 
Q 544 3141 544 3541 
Q 544 4100 942 4425 
Q 1341 4750 2034 4750 
Q 2731 4750 3128 4425 
Q 3525 4100 3525 3541 
Q 3525 3141 3298 2862 
Q 3072 2584 2669 2484 
Q 3125 2378 3379 2068 
Q 3634 1759 3634 1313 
Q 3634 634 3220 271 
Q 2806 -91 2034 -91 
Q 1263 -91 848 271 
Q 434 634 434 1313 
Q 434 1759 690 2068 
Q 947 2378 1403 2484 
z
M 1172 3481 
Q 1172 3119 1398 2916 
Q 1625 2713 2034 2713 
Q 2441 2713 2670 2916 
Q 2900 3119 2900 3481 
Q 2900 3844 2670 4047 
Q 2441 4250 2034 4250 
Q 1625 4250 1398 4047 
Q 1172 3844 1172 3481 
z
" id="DejaVuSans-38" transform="scale(0.015625)"/>
       </defs>
       <use xlink:href="#DejaVuSans-38"/>
      </g>
     </g>
    </g>
    <g id="xtick_6">
     <g id="line2d_6">
      <g>
       <use style="stroke:#000000;stroke-width:0.8;" x="295.68" xlink:href="#m3139cfc27b" y="307.584"/>
      </g>
     </g>
     <g id="text_6">
      <!-- 10 -->
      <g transform="translate(289.3175 322.182437)scale(0.1 -0.1)">
       <defs>
        <path d="M 794 531 
L 1825 531 
L 1825 4091 
L 703 3866 
L 703 4441 
L 1819 4666 
L 2450 4666 
L 2450 531 
L 3481 531 
L 3481 0 
L 794 0 
L 794 531 
z
" id="DejaVuSans-31" transform="scale(0.015625)"/>
       </defs>
       <use xlink:href="#DejaVuSans-31"/>
       <use x="63.623047" xlink:href="#DejaVuSans-30"/>
      </g>
     </g>
    </g>
    <g id="xtick_7">
     <g id="line2d_7">
      <g>
       <use style="stroke:#000000;stroke-width:0.8;" x="343.296" xlink:href="#m3139cfc27b" y="307.584"/>
      </g>
     </g>
     <g id="text_7">
      <!-- 12 -->
      <g transform="translate(336.9335 322.182437)scale(0.1 -0.1)">
       <use xlink:href="#DejaVuSans-31"/>
       <use x="63.623047" xlink:href="#DejaVuSans-32"/>
      </g>
     </g>
    </g>
    <g id="xtick_8">
     <g id="line2d_8">
      <g>
       <use style="stroke:#000000;stroke-width:0.8;" x="390.912" xlink:href="#m3139cfc27b" y="307.584"/>
      </g>
     </g>
     <g id="text_8">
      <!-- 14 -->
      <g transform="translate(384.5495 322.182437)scale(0.1 -0.1)">
       <use xlink:href="#DejaVuSans-31"/>
       <use x="63.623047" xlink:href="#DejaVuSans-34"/>
      </g>
     </g>
    </g>
    <g id="text_9">
     <!-- x -->
     <g transform="translate(233.200625 335.860562)scale(0.1 -0.1)">
      <defs>
       <path d="M 3513 3500 
L 2247 1797 
L 3578 0 
L 2900 0 
L 1881 1375 
L 863 0 
L 184 0 
L 1544 1831 
L 300 3500 
L 978 3500 
L 1906 2253 
L 2834 3500 
L 3513 3500 
z
" id="DejaVuSans-78" transform="scale(0.015625)"/>
      </defs>
      <use xlink:href="#DejaVuSans-78"/>
     </g>
    </g>
   </g>
   <g id="matplotlib.axis_2">
    <g id="ytick_1">
     <g id="line2d_9">
      <defs>
       <path d="M 0 0 
L -3.5 0 
" id="m3bdb4b6f14" style="stroke:#000000;stroke-width:0.8;"/>
      </defs>
      <g>
       <use style="stroke:#000000;stroke-width:0.8;" x="57.6" xlink:href="#m3bdb4b6f14" y="307.584"/>
      </g>
     </g>
     <g id="text_10">
      <!-- 0 -->
      <g transform="translate(44.2375 311.383219)scale(0.1 -0.1)">
       <use xlink:href="#DejaVuSans-30"/>
      </g>
     </g>
    </g>
    <g id="ytick_2">
     <g id="line2d_10">
      <g>
       <use style="stroke:#000000;stroke-width:0.8;" x="57.6" xlink:href="#m3bdb4b6f14" y="258.304"/>
      </g>
     </g>
     <g id="text_11">
      <!-- 5 -->
      <g transform="translate(44.2375 262.103219)scale(0.1 -0.1)">
       <defs>
        <path d="M 691 4666 
L 3169 4666 
L 3169 4134 
L 1269 4134 
L 1269 2991 
Q 1406 3038 1543 3061 
Q 1681 3084 1819 3084 
Q 2600 3084 3056 2656 
Q 3513 2228 3513 1497 
Q 3513 744 3044 326 
Q 2575 -91 1722 -91 
Q 1428 -91 1123 -41 
Q 819 9 494 109 
L 494 744 
Q 775 591 1075 516 
Q 1375 441 1709 441 
Q 2250 441 2565 725 
Q 2881 1009 2881 1497 
Q 2881 1984 2565 2268 
Q 2250 2553 1709 2553 
Q 1456 2553 1204 2497 
Q 953 2441 691 2322 
L 691 4666 
z
" id="DejaVuSans-35" transform="scale(0.015625)"/>
       </defs>
       <use xlink:href="#DejaVuSans-35"/>
      </g>
     </g>
    </g>
    <g id="ytick_3">
     <g id="line2d_11">
      <g>
       <use style="stroke:#000000;stroke-width:0.8;" x="57.6" xlink:href="#m3bdb4b6f14" y="209.024"/>
      </g>
     </g>
     <g id="text_12">
      <!-- 10 -->
      <g transform="translate(37.875 212.823219)scale(0.1 -0.1)">
       <use xlink:href="#DejaVuSans-31"/>
       <use x="63.623047" xlink:href="#DejaVuSans-30"/>
      </g>
     </g>
    </g>
    <g id="ytick_4">
     <g id="line2d_12">
      <g>
       <use style="stroke:#000000;stroke-width:0.8;" x="57.6" xlink:href="#m3bdb4b6f14" y="159.744"/>
      </g>
     </g>
     <g id="text_13">
      <!-- 15 -->
      <g transform="translate(37.875 163.543219)scale(0.1 -0.1)">
       <use xlink:href="#DejaVuSans-31"/>
       <use x="63.623047" xlink:href="#DejaVuSans-35"/>
      </g>
     </g>
    </g>
    <g id="ytick_5">
     <g id="line2d_13">
      <g>
       <use style="stroke:#000000;stroke-width:0.8;" x="57.6" xlink:href="#m3bdb4b6f14" y="110.464"/>
      </g>
     </g>
     <g id="text_14">
      <!-- 20 -->
      <g transform="translate(37.875 114.263219)scale(0.1 -0.1)">
       <use xlink:href="#DejaVuSans-32"/>
       <use x="63.623047" xlink:href="#DejaVuSans-30"/>
      </g>
     </g>
    </g>
    <g id="ytick_6">
     <g id="line2d_14">
      <g>
       <use style="stroke:#000000;stroke-width:0.8;" x="57.6" xlink:href="#m3bdb4b6f14" y="61.184"/>
      </g>
     </g>
     <g id="text_15">
      <!-- 25 -->
      <g transform="translate(37.875 64.983219)scale(0.1 -0.1)">
       <use xlink:href="#DejaVuSans-32"/>
       <use x="63.623047" xlink:href="#DejaVuSans-35"/>
      </g>
     </g>
    </g>
    <g id="text_16">
     <!-- y -->
     <g transform="translate(31.795313 177.487375)rotate(-90)scale(0.1 -0.1)">
      <defs>
       <path d="M 2059 -325 
Q 1816 -950 1584 -1140 
Q 1353 -1331 966 -1331 
L 506 -1331 
L 506 -850 
L 844 -850 
Q 1081 -850 1212 -737 
Q 1344 -625 1503 -206 
L 1606 56 
L 191 3500 
L 800 3500 
L 1894 763 
L 2988 3500 
L 3597 3500 
L 2059 -325 
z
" id="DejaVuSans-79" transform="scale(0.015625)"/>
      </defs>
      <use xlink:href="#DejaVuSans-79"/>
     </g>
    </g>
   </g>
   <g id="line2d_15">
    <path clip-path="url(#pc5b057eba4)" d="M 57.6 307.584 
L 129.024 287.872 
" style="fill:none;stroke:#ffa500;stroke-linecap:square;stroke-width:1.5;"/>
   </g>
   <g id="line2d_16">
    <path clip-path="url(#pc5b057eba4)" d="M 57.6 307.584 
L 105.216 238.592 
" style="fill:none;stroke:#ff0000;stroke-linecap:square;stroke-width:1.5;"/>
   </g>
   <g id="patch_3">
    <path d="M 57.6 307.584 
L 57.6 41.472 
" style="fill:none;stroke:#000000;stroke-linecap:square;stroke-linejoin:miter;stroke-width:0.8;"/>
   </g>
   <g id="patch_4">
    <path d="M 414.72 307.584 
L 414.72 41.472 
" style="fill:none;stroke:#000000;stroke-linecap:square;stroke-linejoin:miter;stroke-width:0.8;"/>
   </g>
   <g id="patch_5">
    <path d="M 57.6 307.584 
L 414.72 307.584 
" style="fill:none;stroke:#000000;stroke-linecap:square;stroke-linejoin:miter;stroke-width:0.8;"/>
   </g>
   <g id="patch_6">
    <path d="M 57.6 41.472 
L 414.72 41.472 
" style="fill:none;stroke:#000000;stroke-linecap:square;stroke-linejoin:miter;stroke-width:0.8;"/>
   </g>
   <g id="legend_1">
    <g id="patch_7">
     <path d="M 363.43875 78.82825 
L 407.72 78.82825 
Q 409.72 78.82825 409.72 76.82825 
L 409.72 48.472 
Q 409.72 46.472 407.72 46.472 
L 363.43875 46.472 
Q 361.43875 46.472 361.43875 48.472 
L 361.43875 76.82825 
Q 361.43875 78.82825 363.43875 78.82825 
z
" style="fill:#ffffff;opacity:0.8;stroke:#cccccc;stroke-linejoin:miter;"/>
    </g>
    <g id="line2d_17">
     <path d="M 365.43875 54.570437 
L 385.43875 54.570437 
" style="fill:none;stroke:#ffa500;stroke-linecap:square;stroke-width:1.5;"/>
    </g>
    <g id="line2d_18"/>
    <g id="text_17">
     <!-- v1 -->
     <g transform="translate(393.43875 58.070437)scale(0.1 -0.1)">
      <defs>
       <path d="M 191 3500 
L 800 3500 
L 1894 563 
L 2988 3500 
L 3597 3500 
L 2284 0 
L 1503 0 
L 191 3500 
z
" id="DejaVuSans-76" transform="scale(0.015625)"/>
      </defs>
      <use xlink:href="#DejaVuSans-76"/>
      <use x="59.179688" xlink:href="#DejaVuSans-31"/>
     </g>
    </g>
    <g id="line2d_19">
     <path d="M 365.43875 69.248562 
L 385.43875 69.248562 
" style="fill:none;stroke:#ff0000;stroke-linecap:square;stroke-width:1.5;"/>
    </g>
    <g id="line2d_20"/>
    <g id="text_18">
     <!-- v2 -->
     <g transform="translate(393.43875 72.748562)scale(0.1 -0.1)">
      <use xlink:href="#DejaVuSans-76"/>
      <use x="59.179688" xlink:href="#DejaVuSans-32"/>
     </g>
    </g>
   </g>
  </g>
 </g>
 <defs>
  <clipPath id="pc5b057eba4">
   <rect height="266.112" width="357.12" x="57.6" y="41.472"/>
  </clipPath>
 </defs>
</svg>
